<svg xmlns="http://www.w3.org/2000/svg" width="45.976" height="52.745" viewBox="0 0 45.976 52.745">
  <path id="Trazado_14" data-name="Trazado 14" d="M198.725,84.4c-.108-.795-.168-1.6-.2-2.4a25.7,25.7,0,0,1,.24-4.753,1.549,1.549,0,0,0-1.048-1.845,1.51,1.51,0,0,0-1.845,1.047,30.357,30.357,0,0,0-.274,6.3c-16.475-3.061-32.161-12.992-37.7-29.49a35.486,35.486,0,0,1-1.776-14.31c.16-1.923-2.841-1.913-3,0a40,40,0,0,0,7.1,25.6,48.894,48.894,0,0,0,20.955,16.942,62.433,62.433,0,0,0,14.269,4.264l-1.823.454-4.424,1.1c-1.872.467-1.079,3.361.8,2.893l4.764-1.188c1.434-.357,3.756-.5,4.156-2.263A6.632,6.632,0,0,0,198.725,84.4Z" transform="translate(-152.998 -37.513)"/>
</svg>
