<svg xmlns="http://www.w3.org/2000/svg" width="126.765" height="26.061" viewBox="0 0 126.765 26.061">
  <g id="Grupo_52" data-name="Grupo 52" transform="translate(-130.382 -71.95)">
    <path id="Trazado_696" data-name="Trazado 696" d="M242.92,73.749l5.367-.9v8.294c.727-.153,1.416-.347,2.12-.436a11.467,11.467,0,0,1,5.13.329,3.9,3.9,0,0,1,2.747,3.3,17.879,17.879,0,0,1,.226,2.712c.016,1.794.014,3.59-.069,5.383a5.589,5.589,0,0,1-2.016,4.435,7,7,0,0,1-3.247,1.3,24.464,24.464,0,0,1-7.045.021c-.964-.117-1.925-.273-2.888-.389-.264-.032-.361-.14-.348-.392.008-.165,0-.332,0-.5q0-11.313,0-22.627C242.9,74.119,242.91,73.953,242.92,73.749Zm5.374,20.145a9.763,9.763,0,0,0,3.062-.023,1.825,1.825,0,0,0,1.668-1.9c.074-1.664.094-3.332.053-5a1.658,1.658,0,0,0-1.642-1.821,4.813,4.813,0,0,0-2.957.6.471.471,0,0,0-.176.363c-.013,1.5-.008,3-.008,4.5Z" transform="translate(-52.894 -0.425)" fill="#c5c5c7" fill-rule="evenodd"/>
    <path id="Trazado_697" data-name="Trazado 697" d="M355.364,98.21h-.988c-1.475,0-2.95-.011-4.425.007a.666.666,0,0,1-.666-.377c-1.447-2.435-2.908-4.862-4.365-7.29-.04-.065-.081-.128-.177-.281v7.916c-.174.008-.308.021-.443.021-1.514,0-3.027-.012-4.541.011-.357,0-.46-.1-.457-.449.015-1.706.007-3.412.007-5.118V74.294c0-.531,0-.521.54-.609,1.476-.241,2.951-.494,4.426-.74.124-.021.253-.023.427-.039V88.292l.088.028c.134-.206.273-.408.4-.615q2.044-3.233,4.082-6.47a.716.716,0,0,1,.7-.4c1.591.025,3.181.009,4.773.009h.619c-.094.178-.148.3-.218.407q-2.426,3.834-4.858,7.662a.629.629,0,0,0-.023.781c1.656,2.726,3.29,5.466,4.929,8.2C355.241,97.972,355.279,98.051,355.364,98.21Z" transform="translate(-98.218 -0.449)" fill="#c5c5c7" fill-rule="evenodd"/>
    <path id="Trazado_698" data-name="Trazado 698" d="M225.789,100.213c.008.135.022.246.022.358,0,1.219,0,2.438.006,3.655,0,.259-.056.367-.341.431a28.241,28.241,0,0,1-7.368.579,8.774,8.774,0,0,1-3.375-.8,5.889,5.889,0,0,1-3.422-4.571,14.766,14.766,0,0,1-.166-2.292c-.023-1.333-.047-2.669.009-4a6.277,6.277,0,0,1,1.478-4.029,5.828,5.828,0,0,1,3.266-1.816,12.009,12.009,0,0,1,6.441.241,5.2,5.2,0,0,1,3.753,4.568c.211,1.769.172,3.568.246,5.407h-.564c-2.937,0-5.874.007-8.81-.009-.345,0-.464.1-.428.432.029.268.011.542.06.8a1.62,1.62,0,0,0,1.613,1.484,24.524,24.524,0,0,0,3.337.038c1.338-.088,2.665-.312,4-.476A2.2,2.2,0,0,1,225.789,100.213Zm-7.073-5.927h1.076c1.168,0,1.168,0,1.047-1.165a1.551,1.551,0,0,0-1.3-1.505A5.128,5.128,0,0,0,217.9,91.6a1.421,1.421,0,0,0-1.256,1.185c-.076.385-.072.785-.11,1.178-.024.252.086.335.334.33C217.485,94.277,218.1,94.286,218.716,94.286Z" transform="translate(-37.956 -7.263)" fill="#c5c5c7" fill-rule="evenodd"/>
    <path id="Trazado_699" data-name="Trazado 699" d="M322.849,96.31c-.072,1.209-.063,2.382-.225,3.531a5.665,5.665,0,0,1-4.637,5.046,12.017,12.017,0,0,1-6.558-.17,5.618,5.618,0,0,1-4.071-4.782,17.5,17.5,0,0,1-.157-2.679c-.01-1.307-.038-2.62.076-3.918a5.845,5.845,0,0,1,5.038-5.636,12,12,0,0,1,6.3.258,5.56,5.56,0,0,1,3.992,4.715C322.8,93.883,322.777,95.123,322.849,96.31Zm-5.487.041h-.007c0-.848.015-1.694,0-2.539a1.811,1.811,0,0,0-1.307-1.715,3.544,3.544,0,0,0-1.934-.051,1.787,1.787,0,0,0-1.481,1.693q-.041,2.6,0,5.193a1.7,1.7,0,0,0,1.342,1.671,4.892,4.892,0,0,0,1.479.126,1.912,1.912,0,0,0,1.911-2.07C317.368,97.888,317.362,97.12,317.362,96.351Z" transform="translate(-83.121 -7.265)" fill="#c5c5c7" fill-rule="evenodd"/>
    <path id="Trazado_700" data-name="Trazado 700" d="M290.734,96.514c-.089,1.115-.094,2.418-.315,3.684a5.632,5.632,0,0,1-4.681,4.738,12.214,12.214,0,0,1-6.19-.126,5.7,5.7,0,0,1-4.318-4.781,11.1,11.1,0,0,1-.16-1.832c-.021-1.435-.049-2.873.011-4.306a6.312,6.312,0,0,1,2.055-4.759,6.7,6.7,0,0,1,3.4-1.489,12.074,12.074,0,0,1,6.137.4,5.555,5.555,0,0,1,3.809,4.734C290.656,93.948,290.648,95.147,290.734,96.514Zm-10.245-.175h-.027q0,1.154,0,2.309a2.6,2.6,0,0,0,.026.345,1.7,1.7,0,0,0,1.279,1.6,4.9,4.9,0,0,0,1.589.14,1.893,1.893,0,0,0,1.865-1.921q.017-2.462,0-4.925a1.819,1.819,0,0,0-1.367-1.789,3.53,3.53,0,0,0-2.008-.006,1.749,1.749,0,0,0-1.35,1.67C280.463,94.62,280.489,95.479,280.489,96.339Z" transform="translate(-68.008 -7.277)" fill="#c5c5c7" fill-rule="evenodd"/>
    <path id="Trazado_701" data-name="Trazado 701" d="M162.134,104.351c-1.02.323-1.99.69-2.99.93a7.137,7.137,0,0,1-3.612.005,4.431,4.431,0,0,1-3.307-3.708,6.912,6.912,0,0,1,.025-2.785,3.766,3.766,0,0,1,3.131-3.1,14.171,14.171,0,0,1,2.4-.249c1.076-.04,2.155-.023,3.232,0,.33.006.433-.1.4-.415a6.725,6.725,0,0,1-.024-.808c.026-1.385-.655-1.682-1.745-1.728-1.741-.075-3.486-.06-5.229-.084-.153,0-.3,0-.517,0,.033-.422.057-.811.095-1.2.1-1.019.2-2.038.321-3.054a.385.385,0,0,1,.286-.242c2.244.013,4.488.012,6.731.088a9.038,9.038,0,0,1,2.141.407,4.257,4.257,0,0,1,3.172,3.837,17.794,17.794,0,0,1,.161,2.41c.018,3.4,0,6.8.015,10.2,0,.362-.085.486-.467.478q-1.807-.037-3.616,0c-.359.006-.476-.139-.509-.453C162.2,104.685,162.158,104.486,162.134,104.351ZM159.8,99.094V99.1c-.4,0-.794-.011-1.192,0-.783.025-1.113.384-1.1,1.161a1.212,1.212,0,0,0,1.315,1.358,4.435,4.435,0,0,0,2.382-.608.5.5,0,0,0,.19-.366c.024-.409,0-.819.013-1.23.01-.259-.1-.334-.343-.325C160.647,99.1,160.224,99.094,159.8,99.094Z" transform="translate(-10.208 -7.506)" fill="#c5c5c7" fill-rule="evenodd"/>
    <path id="Trazado_702" data-name="Trazado 702" d="M142.432,71.95v3c0,.41-.012.821,0,1.23.008.25-.075.339-.33.334q-1.056-.017-2.116,0a3.263,3.263,0,0,0-.72.093.908.908,0,0,0-.76.9c-.028.945-.009,1.891-.009,2.884h3.959c-.068.721-.128,1.392-.2,2.062s-.157,1.348-.211,2.025c-.024.307-.11.446-.458.438-1.036-.025-2.074-.008-3.146-.008V97.728h-5.376c-.013-.174-.038-.359-.038-.543,0-3.939-.006-7.877.007-11.814,0-.361-.073-.493-.46-.475-.713.035-1.43.01-2.195.01v-.456c0-1.155-.006-2.309,0-3.464,0-.645-.077-.583.568-.588.578,0,1.155-.017,1.732,0,.28.01.349-.1.349-.355.006-1.064-.012-2.13.051-3.191a5.024,5.024,0,0,1,1.454-3.534,4.327,4.327,0,0,1,2.691-1.2C138.939,72,140.656,72,142.432,71.95Z" transform="translate(0)" fill="#c5c5c7" fill-rule="evenodd"/>
    <path id="Trazado_703" data-name="Trazado 703" d="M196.454,92.527c-.858-.134-1.652-.269-2.448-.379a11.7,11.7,0,0,0-4.087-.042,1.575,1.575,0,0,0-1.382,1.606q-.051,2.667,0,5.339a1.462,1.462,0,0,0,1.3,1.535,15.329,15.329,0,0,0,2.977.118c1.119-.073,2.227-.307,3.341-.469a2.17,2.17,0,0,1,.259,0,2.133,2.133,0,0,1,.039.292c0,1.244,0,2.488,0,3.732,0,.241-.051.352-.317.412a21.318,21.318,0,0,1-6.058.586,7.825,7.825,0,0,1-4.918-1.8,5.745,5.745,0,0,1-1.962-3.968,46.579,46.579,0,0,1-.071-5.717,6.072,6.072,0,0,1,2.924-5.165,8.3,8.3,0,0,1,3.486-1.089,20.122,20.122,0,0,1,6.589.551c.123.028.309.182.31.28C196.461,89.72,196.454,91.09,196.454,92.527Z" transform="translate(-24.772 -7.28)" fill="#c5c5c7" fill-rule="evenodd"/>
  </g>
</svg>
