<svg xmlns="http://www.w3.org/2000/svg" width="135.359" height="183.38" viewBox="0 0 135.359 183.38">
  <g id="Grupo_85" data-name="Grupo 85" transform="translate(-416 -984.62)">
    <circle id="Elipse_32" data-name="Elipse 32" cx="52.5" cy="52.5" r="52.5" transform="translate(416 1063)" fill="#f4f4f4" opacity="0.385"/>
    <g id="Grupo_35" data-name="Grupo 35" transform="translate(440.825 986.451)">
      <path id="Trazado_138" data-name="Trazado 138" d="M-3219.647,526.574c2.68-5.566,5.4-11.227,6.589-17.333,1.25-6.417.452-13.053,1.178-19.537a75.932,75.932,0,0,1,1.649-9.374q.519-2.145,1.161-4.258a33.325,33.325,0,0,0,1.525-4.727c.2-1.4-.828-2.581-1.519-3.714-.827-1.356-1.654-2.712-2.495-4.06-1.519-2.435-3.081-4.845-4.755-7.177a68.628,68.628,0,0,0-6.33-7.676c-2.282-2.364-5.043-4.5-6.374-7.6" transform="translate(3229.557 -387.983)" fill="none" stroke="#24303e" stroke-linecap="round" stroke-linejoin="round" stroke-width="3"/>
      <path id="Trazado_139" data-name="Trazado 139" d="M-3231.409,325.167a65.459,65.459,0,0,1,.642-14.721q.969-7.658,1.937-15.316" transform="translate(3231.604 -272.462)" fill="none" stroke="#24303e" stroke-linecap="round" stroke-linejoin="round" stroke-width="3"/>
      <path id="Trazado_140" data-name="Trazado 140" d="M-3216.679,290.609c2.429-.54,4.836.778,6.369,2.6,1.848,2.194,2.357,5.122,2.462,7.908.118,3.137-.085,6.3-.165,9.436-.043,1.679-.112,3.359-.124,5.038a6.457,6.457,0,0,0,.923,3.992" transform="translate(3219.794 -268.788)" fill="none" stroke="#24303e" stroke-linecap="round" stroke-linejoin="round" stroke-width="3"/>
      <path id="Trazado_141" data-name="Trazado 141" d="M-3170.746,430.867c2.43,3.715,6.609,5.88,10.021,8.56a67.341,67.341,0,0,1,10.267,10.008" transform="translate(3183.447 -379.871)" fill="none" stroke="#24303e" stroke-linecap="round" stroke-linejoin="round" stroke-width="3"/>
      <path id="Trazado_142" data-name="Trazado 142" d="M-3045.142,561.737l9.136,20.242c1.892,4.191,3.814,8.506,4.048,13.1s-1.6,9.591-5.634,11.805" transform="translate(3084.057 -483.428)" fill="none" stroke="#24303e" stroke-linecap="round" stroke-linejoin="round" stroke-width="3"/>
      <path id="Trazado_143" data-name="Trazado 143" d="M-3126.825,357.188q-2.123-8.318-3.843-16.732-.848-4.146-1.6-8.312c-.483-2.688-1.167-5.583-.375-8.279" transform="translate(3153.581 -295.2)" fill="none" stroke="#24303e" stroke-linecap="round" stroke-linejoin="round" stroke-width="3"/>
      <path id="Trazado_144" data-name="Trazado 144" d="M-3129.545,217.223c1.148-2.52,3.259-4.479,5.066-6.523q2.892-3.272,5.581-6.717a143.787,143.787,0,0,0,10.006-14.578" transform="translate(3150.845 -188.803)" fill="none" stroke="#24303e" stroke-linecap="round" stroke-linejoin="round" stroke-width="3"/>
      <path id="Trazado_145" data-name="Trazado 145" d="M-3051.232,186.518c2.192.574,4.507,1.35,5.527,3.563.947,2.054.5,4.506-.132,6.583a60.293,60.293,0,0,1-7.043,14.466c-1.346,2.1-3.244,4.124-4.124,6.482a15.42,15.42,0,0,0-.488,6.372,64.476,64.476,0,0,0,2.559,12.865,132.494,132.494,0,0,0,4.738,13.7" transform="translate(3093.914 -186.518)" fill="none" stroke="#24303e" stroke-linecap="round" stroke-linejoin="round" stroke-width="3"/>
      <path id="Trazado_146" data-name="Trazado 146" d="M-3038.077,295.456l1.819-12.966c.5-3.53.69-7.343,2.017-10.688,1.38-3.477,4.167-5.049,7.544-6.245,3.673-1.3,7.288-2.731,10.817-4.389a107.879,107.879,0,0,0,11.91-6.543" transform="translate(3078.466 -240.411)" fill="none" stroke="#24303e" stroke-linecap="round" stroke-linejoin="round" stroke-width="3"/>
      <path id="Trazado_147" data-name="Trazado 147" d="M-2945.118,252.926a9.158,9.158,0,0,1,1.549,10.5c-2.12,4.189-7.223,4.974-11.16,6.64-4.458,1.888-7.729,4.806-9.086,9.565a31,31,0,0,0-.793,12.148c.5,4.345,1.532,8.735,1.518,13.123" transform="translate(3020.533 -239.067)" fill="none" stroke="#24303e" stroke-linecap="round" stroke-linejoin="round" stroke-width="3"/>
      <path id="Trazado_148" data-name="Trazado 148" d="M-2802.638,536.918c1.128-1.406.94-3.339.892-5.022a15.043,15.043,0,0,1,.635-5,14.52,14.52,0,0,1,6.158-7.988" transform="translate(2892.164 -449.542)" fill="none" stroke="#24303e" stroke-linecap="round" stroke-linejoin="round" stroke-width="3"/>
      <path id="Trazado_149" data-name="Trazado 149" d="M-2959.877,393.211c3.96-4.387,7.823-8.86,11.768-13.261,1.7-1.9,3.529-4.407,6.155-5.006a8.877,8.877,0,0,1,4.448.514c1.534.448,3.064.907,4.6,1.361,3.167.938,6.366,1.807,9.51,2.821,2.852.92,4.127,2.768,5.47,5.317,2.348,4.454,4.674,9.232,8.593,12.542a9.635,9.635,0,0,1,1.314,1c.333.415.288.313.06.882-.091.225-.189.448-.294.667a10.436,10.436,0,0,1-2.38,3.229,8.495,8.495,0,0,1-7,1.995c-5.3-.787-7.017-5.738-10.752-8.766-4.53-3.673-9.991-.649-13.352,3.068-1.869,2.067-3.447,4.392-5.46,6.33-1.926,1.855-4.4,3.214-5.046,6.009a13.028,13.028,0,0,0,1.429,8.532,23.489,23.489,0,0,0,5.585,7.349c2.568,2.13,6.4.547,9.181-.388a45.343,45.343,0,0,0,4.588-1.829c1.469-.681,3.362-1.385,4.4-2.682" transform="translate(3016.587 -335.521)" fill="none" stroke="#24303e" stroke-linecap="round" stroke-linejoin="round" stroke-width="3"/>
      <path id="Trazado_150" data-name="Trazado 150" d="M-2927.628,517.4a3.971,3.971,0,0,1,3.639,2.692c.688,1.883-.385,3.363-1.509,4.793-2.472,3.147-3.329,6.975-3.488,10.907-.166,4.108.718,8.354.147,12.428-.531,3.792-3.126,6.66-6.112,8.847a110.484,110.484,0,0,1-11.122,6.587c-4.215,2.381-8.456,4.721-12.637,7.161-3.219,1.878-6.989,3.859-9.508,6.661a35.876,35.876,0,0,0-4.164,6.21,119.235,119.235,0,0,0-8.042,16.441" transform="translate(3032.846 -448.343)" fill="none" stroke="#24303e" stroke-linecap="round" stroke-linejoin="round" stroke-width="3"/>
      <path id="Trazado_152" data-name="Trazado 152" d="M-3210.5,428.966a12.975,12.975,0,0,1,6.887-1.314" transform="translate(3214.905 -377.289)" fill="none" stroke="#24303e" stroke-linecap="round" stroke-linejoin="round" stroke-width="3"/>
      <path id="Trazado_153" data-name="Trazado 153" d="M-3091.63,335.4a16.792,16.792,0,0,1,6.823,2.351" transform="translate(3120.843 -304.332)" fill="none" stroke="#24303e" stroke-linecap="round" stroke-linejoin="round" stroke-width="3"/>
      <path id="Trazado_154" data-name="Trazado 154" d="M-2983.76,349.2a7.08,7.08,0,0,1,5.841,3.329" transform="translate(3035.485 -315.247)" fill="none" stroke="#24303e" stroke-linecap="round" stroke-linejoin="round" stroke-width="3"/>
      <path id="Trazado_155" data-name="Trazado 155" d="M-2920.415,310.216q1.622,2.465,3.438,4.795" transform="translate(2985.361 -284.4)" fill="none" stroke="#24303e" stroke-linecap="round" stroke-linejoin="round" stroke-width="3"/>
      <path id="Trazado_156" data-name="Trazado 156" d="M-3043.6,269.783a17.447,17.447,0,0,1,4.221,2.943" transform="translate(3082.837 -252.405)" fill="none" stroke="#24303e" stroke-linecap="round" stroke-linejoin="round" stroke-width="3"/>
      <path id="Trazado_157" data-name="Trazado 157" d="M-2882.237,448.444a22.048,22.048,0,0,1,5.979,5.928" transform="translate(2955.15 -393.78)" fill="none" stroke="#24303e" stroke-linecap="round" stroke-linejoin="round" stroke-width="3"/>
      <path id="Trazado_158" data-name="Trazado 158" d="M-2808.441,440.53a17.8,17.8,0,0,0-5.936,6.822" transform="translate(2901.453 -387.517)" fill="none" stroke="#24303e" stroke-linecap="round" stroke-linejoin="round" stroke-width="3"/>
      <path id="Trazado_159" data-name="Trazado 159" d="M-2796.58,601.337a8.933,8.933,0,0,0,7.8,2.825" transform="translate(2887.37 -514.764)" fill="none" stroke="#24303e" stroke-linecap="round" stroke-linejoin="round" stroke-width="3"/>
    </g>
  </g>
</svg>
