<svg xmlns="http://www.w3.org/2000/svg" width="108.75" height="35.798" viewBox="0 0 108.75 35.798">
  <g id="Grupo_51" data-name="Grupo 51" transform="translate(-0.36 -0.47)">
    <path id="Trazado_690" data-name="Trazado 690" d="M89.2,33.946A8.974,8.974,0,1,1,80.224,25,8.835,8.835,0,0,1,89.2,33.946Zm-3.928,0a5.058,5.058,0,1,0-10.091,0,5.058,5.058,0,1,0,10.091,0Z" transform="translate(-42.299 -14.637)" fill="#c5c5c7"/>
    <path id="Trazado_691" data-name="Trazado 691" d="M137.2,33.946A8.974,8.974,0,1,1,128.224,25,8.835,8.835,0,0,1,137.2,33.946Zm-3.928,0a5.058,5.058,0,1,0-10.091,0,5.058,5.058,0,1,0,10.091,0Z" transform="translate(-70.94 -14.637)" fill="#c5c5c7"/>
    <path id="Trazado_692" data-name="Trazado 692" d="M184.379,25.54V41.6c0,6.606-3.9,9.3-8.5,9.3a8.519,8.519,0,0,1-7.929-5.271l3.42-1.424a4.941,4.941,0,0,0,4.505,3.174c2.948,0,4.775-1.819,4.775-5.243V40.854h-.137a6.091,6.091,0,0,1-4.711,2.033A8.952,8.952,0,0,1,175.8,25a6.2,6.2,0,0,1,4.711,2h.137V25.544h3.731Zm-3.452,8.437c0-3.15-2.1-5.453-4.775-5.453a5.173,5.173,0,0,0-4.981,5.453,5.134,5.134,0,0,0,4.981,5.388C178.825,39.366,180.927,37.1,180.927,33.978Z" transform="translate(-99.569 -14.637)" fill="#c5c5c7"/>
    <path id="Trazado_693" data-name="Trazado 693" d="M219.331,3V29.216H215.5V3Z" transform="translate(-128.371 -1.51)" fill="#c5c5c7"/>
    <path id="Trazado_694" data-name="Trazado 694" d="M242.371,36.884l3.049,2.033a8.9,8.9,0,0,1-7.453,3.965,8.752,8.752,0,0,1-8.877-8.946c0-5.32,3.827-8.946,8.437-8.946,4.642,0,6.913,3.694,7.655,5.691l.407,1.016L233.631,36.65a4.553,4.553,0,0,0,4.336,2.71,5.105,5.105,0,0,0,4.4-2.476Zm-9.385-3.218,7.994-3.319a3.463,3.463,0,0,0-3.319-1.9A4.907,4.907,0,0,0,232.986,33.665Z" transform="translate(-136.48 -14.631)" fill="#c5c5c7"/>
    <path id="Trazado_695" data-name="Trazado 695" d="M14.448,16.982v-3.8H27.237a12.575,12.575,0,0,1,.19,2.291,12.533,12.533,0,0,1-3.287,8.877,12.7,12.7,0,0,1-9.688,3.9A14.085,14.085,0,0,1,.36,14.36,14.085,14.085,0,0,1,14.452.47,13.235,13.235,0,0,1,23.97,4.3L21.292,6.975a9.674,9.674,0,0,0-6.844-2.71A9.964,9.964,0,0,0,4.486,14.36a9.964,9.964,0,0,0,9.962,10.095,9.293,9.293,0,0,0,7.014-2.779,7.866,7.866,0,0,0,2.057-4.7Z" fill="#c5c5c7"/>
  </g>
</svg>
