<svg xmlns="http://www.w3.org/2000/svg" width="134.75" height="45.105" viewBox="0 0 134.75 45.105">
  <g id="Grupo_53" data-name="Grupo 53" transform="translate(-223.894 -57.106)">
    <path id="Trazado_704" data-name="Trazado 704" d="M241.772,58.27a.7.7,0,0,0-.107.215,1.917,1.917,0,0,0-.065.6,3.917,3.917,0,0,0,.172,1.163V74.51a20.275,20.275,0,0,1-.43,4.222,10.19,10.19,0,0,1-1.487,3.6,7.438,7.438,0,0,1-2.886,2.5,10.343,10.343,0,0,1-4.674.926h-.56a10.057,10.057,0,0,1-3.985-.668,6.337,6.337,0,0,1-2.39-1.7,5.582,5.582,0,0,1-1.163-2.262,9.823,9.823,0,0,1-.3-2.348,7.018,7.018,0,0,1,.238-1.831,5.082,5.082,0,0,1,.689-1.551,3.745,3.745,0,0,1,1.1-1.077,2.684,2.684,0,0,1,1.465-.409q.775,0,.991.409a1.794,1.794,0,0,1,.216.84,2.935,2.935,0,0,1-.388,1.573,6.685,6.685,0,0,1-.841,1.1q-.452.475-.84.948a1.778,1.778,0,0,0-.388,1.163,3.289,3.289,0,0,0,1.378,2.972,6.157,6.157,0,0,0,3.447.9,6.438,6.438,0,0,0,3.144-.732,7.188,7.188,0,0,0,2.219-1.852,7.878,7.878,0,0,0,1.314-2.434,7.983,7.983,0,0,0,.43-2.477l-.647.042a4.988,4.988,0,0,1-2.692-.71,6.434,6.434,0,0,1-1.9-1.787,7.909,7.909,0,0,1-1.12-2.326,8.317,8.317,0,0,1-.366-2.326V67.7a10.158,10.158,0,0,1,.215-1.917,19.243,19.243,0,0,1,.6-2.282,17.761,17.761,0,0,1,.948-2.327,14.468,14.468,0,0,1,1.206-2.046,6.791,6.791,0,0,1,1.378-1.464,2.46,2.46,0,0,1,1.508-.56,2.237,2.237,0,0,1,.689.129l3.016.216a1.531,1.531,0,0,1,.582.215A.652.652,0,0,1,241.772,58.27Zm-3.7,5.169c.058-.23.115-.445.173-.647a2.525,2.525,0,0,0,.086-.689,1.885,1.885,0,0,0-.28-1.012,1.094,1.094,0,0,0-1.012-.452,1.88,1.88,0,0,0-1.551.775,5.615,5.615,0,0,0-.927,1.852,12.675,12.675,0,0,0-.452,2.24,17.814,17.814,0,0,0-.129,1.9q0,.561.086,1.616a9.61,9.61,0,0,0,.409,2.09,5.942,5.942,0,0,0,.905,1.809,1.86,1.86,0,0,0,1.572.775c.057,0,.222-.014.5-.042a2.443,2.443,0,0,0,.624-.13Z" transform="translate(0 0)" fill="#c5c5c7"/>
    <path id="Trazado_705" data-name="Trazado 705" d="M285.424,91.186a8.587,8.587,0,0,0-1.056,2,22.156,22.156,0,0,0-.71,2.283q-.3,1.186-.5,2.369t-.409,2.261c-.057.173-.28.288-.668.345a6.392,6.392,0,0,1-.84.086,7.571,7.571,0,0,1-1.271-.086,1.178,1.178,0,0,1-.754-.409,2.3,2.3,0,0,1-.388-.99,16.586,16.586,0,0,1-.215-1.788l.56-12.795c0-.372.2-.56.6-.56a3.966,3.966,0,0,1,.6.065,6.641,6.641,0,0,1,.818.194,2.864,2.864,0,0,1,.733.323.548.548,0,0,1,.3.453v8.745a1.186,1.186,0,0,0,.13-.344q.3-.775.732-1.917a22.892,22.892,0,0,1,.948-2.176,10.109,10.109,0,0,1,1.1-1.766,1.582,1.582,0,0,1,1.184-.733,1.726,1.726,0,0,1,1.185.367,2.373,2.373,0,0,1,.624.926,4.17,4.17,0,0,1,.259,1.206q.042.647.042,1.25,0,.431-.086,1.422t-.086,2.972a8.742,8.742,0,0,0,.215,2.025q.216.9.862.9a1.145,1.145,0,0,0,.862-.43,4.9,4.9,0,0,0,.711-1.077,8.411,8.411,0,0,0,.538-1.378,6.5,6.5,0,0,0,.258-1.379q.042-.817.646-.818a.521.521,0,0,1,.517.258,1.32,1.32,0,0,1,.129.6v.086a9.68,9.68,0,0,1-.323,1.938,8.319,8.319,0,0,1-.818,2.025,5.154,5.154,0,0,1-1.4,1.594,3.416,3.416,0,0,1-2.111.646,2.344,2.344,0,0,1-2.477-1.4,12.174,12.174,0,0,1-.538-4.157Z" transform="translate(-33.787 -16.546)" fill="#c5c5c7"/>
    <path id="Trazado_706" data-name="Trazado 706" d="M323.36,98.671a1.936,1.936,0,0,1-.689,1.594,4.465,4.465,0,0,1-1.572.819,8.515,8.515,0,0,1-1.766.323q-.884.064-1.271.064a10.539,10.539,0,0,1-1.486-.129,9.965,9.965,0,0,1-1.725-.409,4.037,4.037,0,0,1-1.421-.8,1.655,1.655,0,0,1-.581-1.292.69.69,0,0,1,.367-.668,1.408,1.408,0,0,1,1.636.151q.453.345.948.733a9.124,9.124,0,0,0,1.1.732,2.729,2.729,0,0,0,1.379.345,2.619,2.619,0,0,0,.925-.237.844.844,0,0,0,.582-.84,1.747,1.747,0,0,0-.5-1.163,10.146,10.146,0,0,0-1.249-1.163q-.755-.6-1.615-1.249a15.165,15.165,0,0,1-1.616-1.4,7.308,7.308,0,0,1-1.249-1.659,4.06,4.06,0,0,1-.5-1.981,3.58,3.58,0,0,1,.969-2.542,7.245,7.245,0,0,1,2.283-1.637,11.559,11.559,0,0,1,2.693-.861,12.485,12.485,0,0,1,2.154-.259,3.823,3.823,0,0,1,1.464.3,1.144,1.144,0,0,1,.733,1.163,3.838,3.838,0,0,1-.109.753,4.117,4.117,0,0,1-.344.969,2.977,2.977,0,0,1-.624.84,1.384,1.384,0,0,1-.991.367.524.524,0,0,1-.345-.152c-.115-.1-.244-.215-.387-.344a3.521,3.521,0,0,0-.453-.345.983.983,0,0,0-.538-.151,2.371,2.371,0,0,0-2.111.883,3.266,3.266,0,0,0-.6,1.874,2.616,2.616,0,0,0,1.013,1.81q1.011.948,2.24,1.9t2.24,1.873A2.553,2.553,0,0,1,323.36,98.671Z" transform="translate(-54.922 -17.311)" fill="#c5c5c7"/>
    <path id="Trazado_707" data-name="Trazado 707" d="M336.056,77.138q.044-2.2.13-4.48t.172-4.223q0-.344-.689-.474t-1.551-.258a6.805,6.805,0,0,1-1.551-.409.958.958,0,0,1-.689-.926q0-.56,1.12-.647t3.317-.086q.172,0,.236-.518t.087-1.314q.021-.8.042-1.7t.065-1.7a8.89,8.89,0,0,1,.151-1.314c.071-.345.164-.517.279-.517a6.033,6.033,0,0,1,.776.086q.558.086,1.163.236a5.716,5.716,0,0,1,1.055.366q.452.216.452.474l-.473,5.6c0,.172.151.295.452.366a5.956,5.956,0,0,0,1.164.13c.473.015.976.021,1.507.021a8.41,8.41,0,0,1,1.508.129,3.341,3.341,0,0,1,1.163.409.926.926,0,0,1,.453.84.812.812,0,0,1-.086.28c-.058.129-.13.194-.216.194a.43.43,0,0,1-.236-.129,1.473,1.473,0,0,0-.8-.13c-.115,0-.43.015-.947.043s-1.063.072-1.637.129-1.1.122-1.572.194-.74.166-.8.28A6.4,6.4,0,0,0,340,69.1q-.064.927-.129,2.434t-.107,3.468q-.043,1.961-.043,4.114a14.267,14.267,0,0,0,.086,1.594,8.968,8.968,0,0,0,.258,1.4,3.125,3.125,0,0,0,.453,1.012.81.81,0,0,0,.667.388,1.441,1.441,0,0,0,1.034-.474,4.613,4.613,0,0,0,.862-1.293,12.545,12.545,0,0,0,.689-1.852q.3-1.034.517-2.111a2.954,2.954,0,0,1,.3-.926.566.566,0,0,1,.517-.28.828.828,0,0,1,.538.194,1.161,1.161,0,0,1,.237.883,2.262,2.262,0,0,1-.043.56q-.129.776-.5,2.133a15.883,15.883,0,0,1-.991,2.671,9.316,9.316,0,0,1-1.53,2.305,2.779,2.779,0,0,1-2.11.99,3.209,3.209,0,0,1-2.025-.667,5.161,5.161,0,0,1-1.443-1.853,10.848,10.848,0,0,1-.883-2.8,18.878,18.878,0,0,1-.3-3.468Z" transform="translate(-66.671 -0.905)" fill="#c5c5c7"/>
    <path id="Trazado_708" data-name="Trazado 708" d="M382.042,92.546a5.927,5.927,0,0,1-.431,1.421,8.142,8.142,0,0,1-.883,1.572,5.531,5.531,0,0,1-1.25,1.271,2.611,2.611,0,0,1-1.572.516,3.068,3.068,0,0,1-2.262-.991,4.662,4.662,0,0,1-1.184-2.8q-.259.69-.6,1.594A8.472,8.472,0,0,1,373,96.81a5.871,5.871,0,0,1-1.184,1.314,2.436,2.436,0,0,1-1.573.538,1.305,1.305,0,0,1-.388-.043c-.086-.028-.179-.064-.28-.107a1.9,1.9,0,0,0-.344-.108,2.588,2.588,0,0,0-.539-.043,2.453,2.453,0,0,1-1.744-.668,4.838,4.838,0,0,1-1.142-1.7,9.879,9.879,0,0,1-.625-2.261,14.857,14.857,0,0,1-.194-2.3,41.2,41.2,0,0,1,.28-4.911,18.687,18.687,0,0,1,.927-4.114,7.772,7.772,0,0,1,1.679-2.843,3.371,3.371,0,0,1,2.5-1.056,4.4,4.4,0,0,1,1.314.151,6.516,6.516,0,0,1,.84.345q.387.193.84.41a4.776,4.776,0,0,0,1.271.344,3.1,3.1,0,0,1,1.271,1.228,4.663,4.663,0,0,1,.474,1.529,9.611,9.611,0,0,1,.065,1.7,8.81,8.81,0,0,0,.086,1.745c0,.029.065.073.193.129s.281.122.453.194a1.394,1.394,0,0,1,.453.3.674.674,0,0,1,.193.5v.172a7.83,7.83,0,0,0-.517,1.982q-.086.861-.086,2.068,0,.6.064,1.313a9.153,9.153,0,0,0,.217,1.336,2.852,2.852,0,0,0,.451,1.034.924.924,0,0,0,.776.409,1.177,1.177,0,0,0,.926-.517,5.107,5.107,0,0,0,.689-1.185,11.793,11.793,0,0,0,.473-1.356,7.885,7.885,0,0,0,.238-1.034q.086-.518.431-.517a.54.54,0,0,1,.409.237,1.353,1.353,0,0,1,.194.84v.323A1.989,1.989,0,0,1,382.042,92.546Zm-7.97-6.979a8.654,8.654,0,0,0-.086-1.12,5.383,5.383,0,0,0-.3-1.207,2.448,2.448,0,0,0-.646-.948,1.678,1.678,0,0,0-1.163-.387,2.285,2.285,0,0,0-1.961,1.1,8.9,8.9,0,0,0-1.184,2.584,15.546,15.546,0,0,0-.56,3.059q-.129,1.574-.129,2.478,0,.688.064,1.658a14.1,14.1,0,0,0,.237,1.831,5.3,5.3,0,0,0,.5,1.465.956.956,0,0,0,.841.6,2.188,2.188,0,0,0,1.917-.969,7.154,7.154,0,0,0,1.013-2.413,22.036,22.036,0,0,0,.5-3.1q.15-1.657.28-3.036a1.247,1.247,0,0,1,.388-.927q.3-.193.3-.28Z" transform="translate(-87.11 -13.21)" fill="#c5c5c7"/>
    <path id="Trazado_709" data-name="Trazado 709" d="M420.565,98.639a.61.61,0,0,1-.387.6,1.811,1.811,0,0,1-.733.173l-.861-.086q-.216,0-.216.259l-.042.517q.043,1.163.042,2.929v3.4q0,1.722-.107,3.382a13.668,13.668,0,0,1-.5,2.973,5.438,5.438,0,0,1-1.1,2.11,2.491,2.491,0,0,1-1.96.8q-1.077,0-2.262-.108a6.771,6.771,0,0,1-2.154-.539,3.946,3.946,0,0,1-1.594-1.27,3.7,3.7,0,0,1-.625-2.261,13.6,13.6,0,0,1,.325-2.908,15.607,15.607,0,0,1,.932-2.887,17.049,17.049,0,0,1,1.452-2.67,14.388,14.388,0,0,1,1.842-2.262q.52-.517,1.149-1.056t1.105-.883v-.044q.085-.9.13-1.809t.041-1.852q-.215.387-.518,1.055a8.392,8.392,0,0,1-.715,1.271,5.537,5.537,0,0,1-.931,1.056,1.736,1.736,0,0,1-1.169.453,1.355,1.355,0,0,1-.606-.129,1.674,1.674,0,0,0-.736-.13,3.937,3.937,0,0,1-2.013-.646,3.742,3.742,0,0,1-1.255-1.551,8.105,8.105,0,0,1-.628-2.348,24,24,0,0,1-.173-3.038,37.933,37.933,0,0,1,.238-4.178,18.657,18.657,0,0,1,.843-3.942,8.407,8.407,0,0,1,1.621-2.93,3.3,3.3,0,0,1,2.573-1.141,1.167,1.167,0,0,1,.454.129l.606.28.648.3a2.953,2.953,0,0,0,.5.194,11.727,11.727,0,0,1,1.6.431,4.328,4.328,0,0,1,1.254.668,2.827,2.827,0,0,1,.821,1.076,4.014,4.014,0,0,1,.3,1.658,6.635,6.635,0,0,1-.108,1.25,7.765,7.765,0,0,0-.108,1.421.486.486,0,0,0,.245.474,2.747,2.747,0,0,0,.56.215,4.749,4.749,0,0,1,.573.194.438.438,0,0,1,.259.452,1.248,1.248,0,0,1-.194.409c-.13.215-.21.352-.237.409a5.009,5.009,0,0,0-.216,1.1c-.058.5-.1,1.049-.129,1.637s-.05,1.192-.064,1.809-.022,1.17-.022,1.659V96.2q0,.928.042,1.53h.173a.721.721,0,0,0,.172-.021.553.553,0,0,1,.129-.021,3.392,3.392,0,0,1,1.056.237Q420.565,98.165,420.565,98.639Zm-5.47-13.312a7.655,7.655,0,0,0-.086-1.077,4.979,4.979,0,0,0-.3-1.142,2.374,2.374,0,0,0-.629-.9,1.481,1.481,0,0,0-1.02-.367,2.263,2.263,0,0,0-1.54.646,5.508,5.508,0,0,0-1.259,1.831,12.709,12.709,0,0,0-.867,2.886,20.651,20.651,0,0,0-.326,3.856q0,.9.065,1.874a13.922,13.922,0,0,0,.215,1.745,3.818,3.818,0,0,0,.474,1.292.965.965,0,0,0,.841.517,2.081,2.081,0,0,0,1.594-.776,6.418,6.418,0,0,0,1.142-1.916,13.335,13.335,0,0,0,.689-2.37,15.588,15.588,0,0,0,.28-2.132,12.508,12.508,0,0,1,.137-1.7,1.8,1.8,0,0,1,.182-.582,1.657,1.657,0,0,0,.344-.818A6.038,6.038,0,0,0,415.094,85.328Zm-.173,14.949a7.82,7.82,0,0,0-1.89,1.938,15.531,15.531,0,0,0-1.544,2.714,17.473,17.473,0,0,0-1.021,2.973,11.528,11.528,0,0,0-.369,2.713,5.769,5.769,0,0,0,.087.948,4.142,4.142,0,0,0,.282.97,1.973,1.973,0,0,0,.565.754,1.365,1.365,0,0,0,.891.3,1.82,1.82,0,0,0,1.5-.754,5.636,5.636,0,0,0,.914-1.787,10.592,10.592,0,0,0,.435-2.111q.107-1.077.109-1.724v-.388q0-.258.021-.991t.021-2.046Z" transform="translate(-112.625 -13.488)" fill="#c5c5c7"/>
    <path id="Trazado_710" data-name="Trazado 710" d="M456.6,92.974a12.062,12.062,0,0,1-.193,1.443,12.475,12.475,0,0,1-.69,2.413,7.92,7.92,0,0,1-1.336,2.262,2.674,2.674,0,0,1-2.133.99,2.727,2.727,0,0,1-2.2-.969,6.679,6.679,0,0,1-1.25-2.326,13.117,13.117,0,0,1-.56-2.843q-.129-1.487-.129-2.477a20.217,20.217,0,0,1,.129-2.262q.13-1.14.173-2.262a.408.408,0,0,0-.344-.43,2.69,2.69,0,0,0-.647-.086,1.017,1.017,0,0,0-.646.129.63.63,0,0,0-.173.3l-.172,1.378q-.172,1.38-.367,2.65t-.431,2.24a6.347,6.347,0,0,1-.56,1.551q-.323.581-.753.582h-.043a.632.632,0,0,1-.324-.086c-.1-.057-.15-.2-.15-.43a2.41,2.41,0,0,1,.086-.518,19.1,19.1,0,0,0,.431-2.5q.085-.991.129-1.767v-.3c0-.143.007-.315.022-.516s.021-.445.021-.733V86.3a8.014,8.014,0,0,0-.086-1.12l-.129-2.541a.658.658,0,0,1,.215-.474,2.146,2.146,0,0,1,.56-.388,3.463,3.463,0,0,1,1.422-.345c.488,0,.732.317.732.948v.216l-.043.948V83.8q0,.3.129.366a2.594,2.594,0,0,0,.516.151h.129q.345.044,1.121.086a14.459,14.459,0,0,1,1.551.172,5.074,5.074,0,0,1,1.357.409.873.873,0,0,1,.581.8,2.111,2.111,0,0,1-.086.5,5.915,5.915,0,0,1-.216.647c-.086.215-.158.409-.215.581a1.378,1.378,0,0,0-.087.345,24.512,24.512,0,0,0-.775,6.2c0,.172.014.489.043.948a12.7,12.7,0,0,0,.172,1.422,5.314,5.314,0,0,0,.388,1.292c.172.374.388.561.646.561a1.435,1.435,0,0,0,1.164-.8,9.2,9.2,0,0,0,.9-1.852,16.349,16.349,0,0,0,.624-2.133q.236-1.076.324-1.594c.057-.315.151-.509.28-.582a.767.767,0,0,1,.367-.107q.6,0,.6.775c0,.057-.008.209-.021.452A3.383,3.383,0,0,1,456.6,92.974Z" transform="translate(-135.775 -15.017)" fill="#c5c5c7"/>
    <path id="Trazado_711" data-name="Trazado 711" d="M491.037,92.546a5.961,5.961,0,0,1-.431,1.421,8.144,8.144,0,0,1-.884,1.572,5.522,5.522,0,0,1-1.249,1.271,2.612,2.612,0,0,1-1.572.516,3.068,3.068,0,0,1-2.262-.991,4.663,4.663,0,0,1-1.184-2.8q-.258.69-.6,1.594a8.472,8.472,0,0,1-.861,1.681,5.856,5.856,0,0,1-1.186,1.314,2.428,2.428,0,0,1-1.571.538,1.3,1.3,0,0,1-.388-.043c-.087-.028-.18-.064-.28-.107a1.905,1.905,0,0,0-.345-.108,2.585,2.585,0,0,0-.538-.043,2.452,2.452,0,0,1-1.745-.668,4.833,4.833,0,0,1-1.142-1.7,9.837,9.837,0,0,1-.625-2.261,14.812,14.812,0,0,1-.194-2.3,41.122,41.122,0,0,1,.28-4.911,18.734,18.734,0,0,1,.925-4.114,7.794,7.794,0,0,1,1.68-2.843,3.372,3.372,0,0,1,2.5-1.056,4.4,4.4,0,0,1,1.313.151,6.517,6.517,0,0,1,.841.345c.258.129.539.266.84.41a4.772,4.772,0,0,0,1.271.344,3.1,3.1,0,0,1,1.272,1.228,4.673,4.673,0,0,1,.474,1.529,9.649,9.649,0,0,1,.065,1.7,8.838,8.838,0,0,0,.086,1.745c0,.029.065.073.194.129s.28.122.452.194a1.4,1.4,0,0,1,.453.3.674.674,0,0,1,.194.5v.172a7.778,7.778,0,0,0-.517,1.982q-.087.861-.086,2.068,0,.6.064,1.313a9.106,9.106,0,0,0,.216,1.336,2.86,2.86,0,0,0,.452,1.034.921.921,0,0,0,.775.409,1.176,1.176,0,0,0,.926-.517,5.042,5.042,0,0,0,.69-1.185,11.72,11.72,0,0,0,.473-1.356,7.757,7.757,0,0,0,.238-1.034c.057-.345.2-.517.431-.517a.54.54,0,0,1,.409.237,1.357,1.357,0,0,1,.195.84v.323A1.961,1.961,0,0,1,491.037,92.546Zm-7.97-6.979a8.707,8.707,0,0,0-.086-1.12,5.383,5.383,0,0,0-.3-1.207,2.452,2.452,0,0,0-.646-.948,1.679,1.679,0,0,0-1.163-.387,2.285,2.285,0,0,0-1.96,1.1,8.9,8.9,0,0,0-1.185,2.584,15.577,15.577,0,0,0-.56,3.059q-.128,1.574-.129,2.478,0,.688.065,1.658a13.909,13.909,0,0,0,.237,1.831,5.277,5.277,0,0,0,.5,1.465.956.956,0,0,0,.84.6,2.188,2.188,0,0,0,1.917-.969A7.145,7.145,0,0,0,481.6,93.3a22.088,22.088,0,0,0,.5-3.1q.151-1.657.28-3.036a1.245,1.245,0,0,1,.388-.927c.2-.129.3-.222.3-.28Z" transform="translate(-154.406 -13.21)" fill="#c5c5c7"/>
    <path id="Trazado_712" data-name="Trazado 712" d="M530.568,90.12q-.6,1.163-1.12,2.455t-.777,2.025q-.044.215-.236.9T528,97.034q-.236.84-.409,1.658a6.759,6.759,0,0,0-.173,1.335q0,.217-.388.388a2.438,2.438,0,0,1-.99.172,3.651,3.651,0,0,1-1.508-.259,1.7,1.7,0,0,1-.84-.84,4.218,4.218,0,0,1-.344-1.53q-.064-.946-.064-2.283V92.445c0-.23-.008-.459-.021-.689s-.065-.373-.151-.432q-.216.087-.539,1.12a22.869,22.869,0,0,0-.6,2.52q-.281,1.487-.5,3.124a22.6,22.6,0,0,0-.215,2.929.524.524,0,0,1-.5.56,6.51,6.51,0,0,1-1.1.086,4.364,4.364,0,0,1-.581-.065q-.41-.064-.818-.152a3.832,3.832,0,0,1-.754-.236.75.75,0,0,1-.43-.367,7.3,7.3,0,0,1-.323-1.852q-.108-1.292-.108-4.006,0-1.594.065-3.7t.15-4.954q0-.388-.043-1.013c-.029-.416-.043-.652-.043-.71a.364.364,0,0,1,.28-.409,2.093,2.093,0,0,1,.409-.065,4.743,4.743,0,0,1,.711.065q.408.064.818.151c.273.058.523.123.754.194a2.092,2.092,0,0,1,.474.194V95.116q.216-.861.5-2t.645-2.262a19.962,19.962,0,0,1,.8-2.068,4.215,4.215,0,0,1,.9-1.378,1.489,1.489,0,0,1,.646-.194,5.941,5.941,0,0,1,.776-.065,2.841,2.841,0,0,1,.539.065,3.149,3.149,0,0,1,.624.194,2.274,2.274,0,0,1,.539.323.736.736,0,0,1,.279.452v7.367c0,.172.029.259.087.259a4.042,4.042,0,0,0,.491-1.164q.407-1.163.964-2.757t1.2-3.275a26.9,26.9,0,0,1,1.156-2.671c.056-.115.249-.179.578-.193s.62-.022.878-.022a2.492,2.492,0,0,1,.813.194,4.733,4.733,0,0,1,1.868,1.314,1.385,1.385,0,0,1,.366.9,1.7,1.7,0,0,1-.258.5,2.505,2.505,0,0,0-.345.84,15.615,15.615,0,0,0-.408,2.369q-.11,1.163-.109,2.973,0,.775.065,1.551a9.376,9.376,0,0,0,.216,1.4,3.145,3.145,0,0,0,.41,1.012.79.79,0,0,0,.689.388,1.6,1.6,0,0,0,1.077-.409,3.485,3.485,0,0,0,.818-1.1,9.021,9.021,0,0,0,.6-1.615q.259-.927.431-1.917c.143-.689.4-1.034.775-1.034a.5.5,0,0,1,.452.173,1.733,1.733,0,0,1,.108.775,1.787,1.787,0,0,1-.043.474,10.535,10.535,0,0,1-.366,1.745,13.3,13.3,0,0,1-.9,2.369,7.95,7.95,0,0,1-1.443,2.068,2.7,2.7,0,0,1-1.982.883,3.6,3.6,0,0,1-2.181-.624,4.1,4.1,0,0,1-1.319-1.681,9.051,9.051,0,0,1-.66-2.434,20.9,20.9,0,0,1-.191-2.886v-.3Z" transform="translate(-180.755 -16.686)" fill="#c5c5c7"/>
  </g>
</svg>
