<svg width="248" height="34" viewBox="0 0 248 34" fill="none" xmlns="http://www.w3.org/2000/svg">
<path d="M12.98 4.484H8.609C8.10767 4.484 7.857 4.60933 7.857 4.86V34H2.922C1.85667 34 1.15167 33.8277 0.807 33.483C0.493667 33.1383 0.337 32.4177 0.337 31.321V2.698C0.337 1.60133 0.493667 0.880665 0.807 0.535999C1.15167 0.191332 1.85667 0.0189977 2.922 0.0189977H12.98V4.484ZM14.86 0.0189977H19.795C20.8603 0.0189977 21.5497 0.191332 21.863 0.535999C22.2077 0.880665 22.38 1.60133 22.38 2.698V31.274C22.38 32.3707 22.2077 33.107 21.863 33.483C21.5183 33.8277 20.829 34 19.795 34H14.86V18.255H9.737V13.79H14.86V0.0189977ZM43.8274 23.754H50.4074C50.7521 23.754 50.9244 23.9733 50.9244 24.412V32.684C50.9244 33.5613 50.4858 34 49.6084 34H38.2344V29.535H42.6054C43.1068 29.535 43.3574 29.488 43.3574 29.394C43.3888 29.2687 43.4044 29.1277 43.4044 28.971V24.271C43.4044 24.0203 43.4358 23.8793 43.4984 23.848C43.5611 23.7853 43.6708 23.754 43.8274 23.754ZM36.5894 34H31.6544C30.5891 34 29.8841 33.8277 29.5394 33.483C29.2261 33.1383 29.0694 32.4177 29.0694 31.321V2.698C29.0694 1.60133 29.2261 0.880665 29.5394 0.535999C29.8841 0.191332 30.5891 0.0189977 31.6544 0.0189977H36.5894V34ZM62.8433 34H57.9083C56.843 34 56.138 33.8277 55.7933 33.483C55.48 33.1383 55.3233 32.4177 55.3233 31.321V1.899C55.3233 1.335 55.48 0.880665 55.7933 0.535999C56.1067 0.191332 56.514 0.0189977 57.0153 0.0189977H62.8433V34ZM64.7233 0.0189977H70.6923C73.669 0.0189977 75.643 0.723998 76.6143 2.134C77.617 3.51267 78.1183 6.30133 78.1183 10.5C78.1183 13.2887 77.805 15.4663 77.1783 17.033C76.583 18.5997 75.784 19.6493 74.7813 20.182C73.7787 20.6833 72.4157 20.934 70.6923 20.934H64.7233V16.469H68.2013C69.016 16.469 69.533 16.3593 69.7523 16.14C70.003 15.9207 70.1283 15.576 70.1283 15.106V5.894C70.1283 5.39267 70.003 5.03233 69.7523 4.813C69.533 4.59367 69.016 4.484 68.2013 4.484H64.7233V0.0189977ZM95.6901 18.255H90.5201V34H85.5851C84.5198 34 83.8148 33.8277 83.4701 33.483C83.1568 33.1383 83.0001 32.4177 83.0001 31.321V0.0189977H88.8281C89.3294 0.0189977 89.7368 0.191332 90.0501 0.535999C90.3634 0.880665 90.5201 1.335 90.5201 1.899V13.79H95.6901V18.255ZM97.5701 0.0189977H102.505C103.57 0.0189977 104.26 0.191332 104.573 0.535999C104.918 0.880665 105.09 1.60133 105.09 2.698V34H99.2621C98.7608 34 98.3534 33.8277 98.0401 33.483C97.7268 33.1383 97.5701 32.684 97.5701 32.12V0.0189977ZM124.467 4.484H120.096C119.595 4.484 119.344 4.60933 119.344 4.86V34H114.409C113.344 34 112.639 33.8277 112.294 33.483C111.981 33.1383 111.824 32.4177 111.824 31.321V2.698C111.824 1.60133 111.981 0.880665 112.294 0.535999C112.639 0.191332 113.344 0.0189977 114.409 0.0189977H124.467V4.484ZM126.347 0.0189977H131.282C132.348 0.0189977 133.037 0.191332 133.35 0.535999C133.695 0.880665 133.867 1.60133 133.867 2.698V31.274C133.867 32.3707 133.695 33.107 133.35 33.483C133.006 33.8277 132.316 34 131.282 34H126.347V18.255H121.224V13.79H126.347V0.0189977ZM138.395 0.0189977H153.106C153.607 0.0189977 154.014 0.191332 154.328 0.535999C154.641 0.880665 154.798 1.335 154.798 1.899V34H149.863C148.797 34 148.092 33.8277 147.748 33.483C147.434 33.1383 147.278 32.4177 147.278 31.321V5.894H139.758C138.849 5.894 138.395 5.142 138.395 3.638V0.0189977ZM156.678 0.0189977H164.198C165.106 0.0189977 165.561 0.770998 165.561 2.275V5.894H156.678V0.0189977ZM176.809 34H171.874C170.809 34 170.104 33.8277 169.759 33.483C169.446 33.1383 169.289 32.4177 169.289 31.321V2.698C169.289 1.60133 169.446 0.880665 169.759 0.535999C170.104 0.191332 170.809 0.0189977 171.874 0.0189977H176.809V34ZM191.332 27.42V31.415C191.332 32.4803 191.16 33.1853 190.815 33.53C190.47 33.8433 189.75 34 188.653 34H178.689V27.42H191.332ZM188.512 13.555V16.375C188.512 17.503 188.402 18.2237 188.183 18.537C187.964 18.819 187.337 18.96 186.303 18.96H178.689V13.555H188.512ZM190.862 0.0189977V4.014C190.862 5.07933 190.69 5.78433 190.345 6.129C190 6.44233 189.28 6.599 188.183 6.599H178.689V0.0189977H190.862ZM204.591 34H204.027C202.774 34 201.724 33.906 200.878 33.718C200.063 33.53 199.343 33.154 198.716 32.59C198.121 31.9947 197.651 31.3367 197.306 30.616C196.993 29.8953 196.742 28.8143 196.554 27.373C196.272 25.211 196.131 22.3127 196.131 18.678C196.131 15.012 196.147 12.427 196.178 10.923C196.241 9.419 196.366 7.962 196.554 6.552C196.742 5.11066 196.993 4.04533 197.306 3.356C197.651 2.63533 198.121 1.993 198.716 1.429C199.343 0.833666 200.063 0.457666 200.878 0.301C201.724 0.112998 202.774 0.0189977 204.027 0.0189977H204.591V34ZM206.471 0.0189977H212.44C214.727 0.0189977 216.451 0.410665 217.61 1.194C218.801 1.97733 219.396 3.34033 219.396 5.283V9.513C219.396 10.171 219.177 10.5 218.738 10.5H212.816C212.377 10.5 212.111 10.4373 212.017 10.312C211.923 10.1867 211.876 9.92033 211.876 9.513V5.847C211.876 5.34567 211.798 5.001 211.641 4.813C211.516 4.59367 211.171 4.484 210.607 4.484H206.471V0.0189977ZM212.816 23.519H218.738C219.177 23.519 219.396 23.848 219.396 24.506V28.736C219.396 30.6787 218.801 32.0417 217.61 32.825C216.451 33.6083 214.727 34 212.44 34H206.471V29.535H210.607C211.171 29.535 211.516 29.441 211.641 29.253C211.798 29.0337 211.876 28.6733 211.876 28.172V24.506C211.876 24.0987 211.923 23.8323 212.017 23.707C212.111 23.5817 212.377 23.519 212.816 23.519ZM237.838 18.255H232.668V34H227.733C226.667 34 225.962 33.8277 225.618 33.483C225.304 33.1383 225.148 32.4177 225.148 31.321V0.0189977H230.976C231.477 0.0189977 231.884 0.191332 232.198 0.535999C232.511 0.880665 232.668 1.335 232.668 1.899V13.79H237.838V18.255ZM239.718 0.0189977H244.653C245.718 0.0189977 246.407 0.191332 246.721 0.535999C247.065 0.880665 247.238 1.60133 247.238 2.698V34H241.41C240.908 34 240.501 33.8277 240.188 33.483C239.874 33.1383 239.718 32.684 239.718 32.12V0.0189977Z" fill="black"/>
</svg>
