<svg width="17" height="20" viewBox="0 0 17 20" fill="none" xmlns="http://www.w3.org/2000/svg"><g clip-path="url(#clip0)"><path d="M8.504 5.508c-2.414 0-4.36 2.004-4.36 4.488 0 2.484 1.946 4.488 4.36 4.488 2.413 0 4.36-2.004 4.36-4.488 0-2.484-1.947-4.488-4.36-4.488zm0 7.406c-1.56 0-2.835-1.309-2.835-2.918 0-1.61 1.271-2.918 2.835-2.918 1.563 0 2.834 1.309 2.834 2.918 0 1.61-1.275 2.918-2.834 2.918zm5.555-7.59a1.03 1.03 0 01-1.017 1.047c-.565 0-1.017-.469-1.017-1.047s.456-1.047 1.017-1.047c.562 0 1.017.47 1.017 1.047zm2.888 1.063c-.065-1.403-.376-2.645-1.374-3.668-.994-1.024-2.2-1.344-3.563-1.414-1.404-.082-5.612-.082-7.016 0-1.359.066-2.565.386-3.563 1.41C.433 3.738.125 4.98.057 6.383c-.08 1.445-.08 5.777 0 7.222.064 1.403.376 2.645 1.374 3.668.998 1.024 2.2 1.344 3.563 1.415 1.404.082 5.612.082 7.016 0 1.362-.067 2.569-.387 3.563-1.415.994-1.023 1.306-2.265 1.374-3.668.08-1.445.08-5.773 0-7.218zm-1.814 8.77a2.913 2.913 0 01-1.616 1.663c-1.12.457-3.776.352-5.013.352s-3.897.101-5.013-.352a2.913 2.913 0 01-1.616-1.664c-.444-1.152-.342-3.886-.342-5.16 0-1.273-.099-4.012.342-5.16A2.913 2.913 0 013.49 3.172c1.12-.457 3.776-.352 5.013-.352s3.897-.101 5.013.352a2.913 2.913 0 011.616 1.664c.444 1.152.342 3.887.342 5.16 0 1.274.102 4.012-.342 5.16z" fill="#C13584"/></g><defs><clipPath id="clip0"><path fill="#fff" d="M0 0h17v20H0z"/></clipPath></defs></svg>