<svg width="17" height="20" viewBox="0 0 17 20" fill="none" xmlns="http://www.w3.org/2000/svg"><path d="M3.805 17.502H.281V5.818h3.524v11.684zM2.041 4.223C.914 4.224 0 3.264 0 2.104 0 1.545.215 1.01.598.616A2.012 2.012 0 012.04.002c.541 0 1.06.221 1.443.615s.598.929.598 1.486c0 1.16-.914 2.121-2.04 2.121zM16.996 17.5H13.48v-5.687c0-1.355-.026-3.094-1.832-3.094-1.833 0-2.113 1.473-2.113 2.996v5.786H6.013V5.818h3.38v1.594h.05c.47-.918 1.62-1.887 3.334-1.887 3.567 0 4.223 2.418 4.223 5.559v6.418h-.004z" fill="#0077B5"/></svg>