<svg xmlns="http://www.w3.org/2000/svg" width="163.627" height="159.756" viewBox="0 0 163.627 159.756">
  <g id="Grupo_88" data-name="Grupo 88" transform="translate(-1399.373 -1007.244)">
    <circle id="Elipse_35" data-name="Elipse 35" cx="52.5" cy="52.5" r="52.5" transform="translate(1458 1062)" fill="#f4f4f4" opacity="0.385"/>
    <g id="Grupo_77" data-name="Grupo 77" transform="translate(-878.824 -137.788)">
      <path id="Trazado_178" data-name="Trazado 178" d="M2335.431,1146.685a7.911,7.911,0,0,0-3.267,1.132,17.15,17.15,0,0,0-8.061,10.57c-1.04,4.092-.522,8.418.35,12.549s2.1,8.208,2.47,12.413a22.3,22.3,0,0,1-.841,7.737c-.7,2.745-.968,5.164-2.749,7.528-3.949,5.24-10.06,5.252-16,6.029-.437.057-.874.119-1.309.19-6.821,1.11-13.658,2.7-19.824,5.914-4.057,2.118-5.113,6.154-5.959,10.35-.578,2.868-1.107,5.278.541,7.976a8.477,8.477,0,0,0,6.032,3.987c2.786.246,5.411.857,8.222,1.315a67.017,67.017,0,0,0,14.492.639,4.644,4.644,0,0,0,1.912-.546c3.817-2.028,8.249-4.253,12.237-6a3.714,3.714,0,0,0,2.063-2.3" transform="translate(0 -0.049)" fill="none" stroke="#24303e" stroke-linecap="round" stroke-linejoin="round" stroke-width="3"/>
      <path id="Trazado_179" data-name="Trazado 179" d="M2616.3,1215.751a43.016,43.016,0,0,1-21.268-3.8c-2.833-1.3-6.932-3.088-8.917-5.583a26.751,26.751,0,0,1-1.748-3.45,41.294,41.294,0,0,0-3.062-4.692,87,87,0,0,1-9.751-15.516,57.826,57.826,0,0,1-4.875-14.816q-1.471-8.125-2.147-16.367a6.242,6.242,0,0,0-1.13-3.752,3.875,3.875,0,0,0-3.168-1.137" transform="translate(-224.801)" fill="none" stroke="#24303e" stroke-linecap="round" stroke-linejoin="round" stroke-width="3"/>
      <path id="Trazado_181" data-name="Trazado 181" d="M2373.695,1506.439a3.45,3.45,0,0,0,.071-1.771c-.746-3.334-2.936-6.4-6.112-7.42a10.952,10.952,0,0,0-9.006,1.074,7.794,7.794,0,0,1-6.743.963,51.543,51.543,0,0,0-12.38-2.826" transform="translate(-47.953 -280.312)" fill="none" stroke="#24303e" stroke-linecap="round" stroke-linejoin="round" stroke-width="3"/>
      <path id="Trazado_182" data-name="Trazado 182" d="M2499.352,1571.289a5.378,5.378,0,0,0-.006-2.222c-.383-1.97-3.374-5.544-6.035-5.657" transform="translate(-171.179 -333.959)" fill="none" stroke="#24303e" stroke-linecap="round" stroke-linejoin="round" stroke-width="3"/>
      <path id="Trazado_183" data-name="Trazado 183" d="M2283.4,1577.533c-3.836,4.269-5.552,12.99-.287,16.96,4.848,3.655,14.878,2.782,20.5,2.422,3.428-.219,7.534-.395,10.706-1.89,3.448-1.625,6.654-5.088,9.649-7.466,1.9-1.51,3.824-2.809,4.3-4.954" transform="translate(-0.104 -345.275)" fill="none" stroke="#24303e" stroke-linecap="round" stroke-linejoin="round" stroke-width="3"/>
      <path id="Trazado_184" data-name="Trazado 184" d="M2315.428,1676.853a10.585,10.585,0,0,0-1.054,8.341c.932,3.106,3.779,5.456,6.834,6.544" transform="translate(-27.462 -424.858)" fill="none" stroke="#24303e" stroke-linecap="round" stroke-linejoin="round" stroke-width="3"/>
      <path id="Trazado_185" data-name="Trazado 185" d="M2520.312,1627.268a5.473,5.473,0,0,0-.33-1.882c-.772-2.09-2.771-3.441-4.713-4.532" transform="translate(-188.773 -379.987)" fill="none" stroke="#24303e" stroke-linecap="round" stroke-linejoin="round" stroke-width="3"/>
      <path id="Trazado_186" data-name="Trazado 186" d="M2350.468,1672.73c5.64,1.653,12,.672,17.429-1.581s10.225-5.782,14.782-9.494a19.134,19.134,0,0,0,4.336-4.45,7.787,7.787,0,0,0,1.246-4.075" transform="translate(-56.723 -405.85)" fill="none" stroke="#24303e" stroke-linecap="round" stroke-linejoin="round" stroke-width="3"/>
      <path id="Trazado_187" data-name="Trazado 187" d="M2513.685,1701.86c4.823-5.261,8.25-11.419,2.193-13.759" transform="translate(-187.504 -433.871)" fill="none" stroke="#24303e" stroke-linecap="round" stroke-linejoin="round" stroke-width="3"/>
      <path id="Trazado_188" data-name="Trazado 188" d="M2350.462,1751.756c-.171,11.743,14.639,13.8,22.688,9.418a49.264,49.264,0,0,0,9.748-8.309" transform="translate(-56.717 -484.875)" fill="none" stroke="#24303e" stroke-linecap="round" stroke-linejoin="round" stroke-width="3"/>
      <path id="Trazado_189" data-name="Trazado 189" d="M2422.285,1762.039a12.013,12.013,0,0,0,7.468,2.382,45.611,45.611,0,0,0,7.926-.91c11.9-1.927,24.3-1.948,35.454-6.524,4.292-1.761,8.318-4.172,12.734-5.592,5.693-1.831,11.791-1.938,17.764-1.651" transform="translate(-114.267 -483.168)" fill="none" stroke="#24303e" stroke-linecap="round" stroke-linejoin="round" stroke-width="3"/>
      <path id="Trazado_190" data-name="Trazado 190" d="M2554.982,1159.167a22.327,22.327,0,0,0-1.751,10.509,7.552,7.552,0,0,0,1.164,3.893,3.319,3.319,0,0,0,3.582,1.386" transform="translate(-219.139 -10.05)" fill="none" stroke="#24303e" stroke-linecap="round" stroke-linejoin="round" stroke-width="3"/>
      <path id="Trazado_191" data-name="Trazado 191" d="M2407.163,1466.094a72.268,72.268,0,0,0,1.591,9.164" transform="translate(-102.151 -255.982)" fill="none" stroke="#24303e" stroke-linecap="round" stroke-linejoin="round" stroke-width="3"/>
      <path id="Trazado_192" data-name="Trazado 192" d="M2419.46,1541.537a13.165,13.165,0,0,1,1.57,8.781" transform="translate(-112.004 -316.433)" fill="none" stroke="#24303e" stroke-linecap="round" stroke-linejoin="round" stroke-width="3"/>
      <path id="Trazado_193" data-name="Trazado 193" d="M2438.8,1619.879a11.5,11.5,0,0,1,3.233,7.317" transform="translate(-127.504 -379.206)" fill="none" stroke="#24303e" stroke-linecap="round" stroke-linejoin="round" stroke-width="3"/>
      <path id="Trazado_194" data-name="Trazado 194" d="M2455.759,1688.088a9.453,9.453,0,0,1,1.894,7.709" transform="translate(-141.089 -433.86)" fill="none" stroke="#24303e" stroke-linecap="round" stroke-linejoin="round" stroke-width="3"/>
      <path id="Trazado_195" data-name="Trazado 195" d="M2463.451,1752.578a10.042,10.042,0,0,1,2.911,6.044" transform="translate(-147.253 -485.534)" fill="none" stroke="#24303e" stroke-linecap="round" stroke-linejoin="round" stroke-width="3"/>
      <path id="Trazado_196" data-name="Trazado 196" d="M2458.319,1533.95a13.539,13.539,0,0,1-1.371-3.067,3.319,3.319,0,0,1,.021-2.592,3.766,3.766,0,0,1,2.111-1.4c2.427-.9,5.065-1.8,7.546-1.069" transform="translate(-141.838 -303.627)" fill="none" stroke="#24303e" stroke-linecap="round" stroke-linejoin="round" stroke-width="3"/>
      <path id="Trazado_197" data-name="Trazado 197" d="M2483.318,1573.4a6.638,6.638,0,0,0-3.187,11.838" transform="translate(-158.559 -341.964)" fill="none" stroke="#24303e" stroke-linecap="round" stroke-linejoin="round" stroke-width="3"/>
      <path id="Trazado_198" data-name="Trazado 198" d="M2499.564,1632.507a46.1,46.1,0,0,0-4.211,3.372,7.727,7.727,0,0,0-2.375,3.121,5.633,5.633,0,0,0,.192,3.664,16.788,16.788,0,0,0,1.784,3.277" transform="translate(-170.732 -389.324)" fill="none" stroke="#24303e" stroke-linecap="round" stroke-linejoin="round" stroke-width="3"/>
      <path id="Trazado_199" data-name="Trazado 199" d="M2489.3,1716.89a6.054,6.054,0,0,0,9.69-1.29" transform="translate(-167.966 -455.905)" fill="none" stroke="#24303e" stroke-linecap="round" stroke-linejoin="round" stroke-width="3"/>
      <path id="Trazado_200" data-name="Trazado 200" d="M2563.566,1619.026a22.077,22.077,0,0,0,28.767,14.578" transform="translate(-227.472 -378.523)" fill="none" stroke="#24303e" stroke-linecap="round" stroke-linejoin="round" stroke-width="3"/>
    </g>
  </g>
</svg>
