<svg xmlns="http://www.w3.org/2000/svg" width="147.397" height="154.145" viewBox="0 0 147.397 154.145">
  <g id="Grupo_87" data-name="Grupo 87" transform="translate(-1096.603 -1001.855)">
    <circle id="Elipse_34" data-name="Elipse 34" cx="52.5" cy="52.5" r="52.5" transform="translate(1139 1051)" fill="#f4f4f4" opacity="0.385"/>
    <g id="Grupo_76" data-name="Grupo 76" transform="translate(1098.221 1003.364)">
      <path id="Trazado_160" data-name="Trazado 160" d="M-1044.284,386.111c-7.448-11.715-14.829-23.308-18.464-36.8-1.831-6.8-3.221-13.575-6.567-19.848-3.289-6.167-7.622-11.7-10.785-17.943a51.994,51.994,0,0,1-5.714-18.8c-.527-5.917.944-11.036,1.686-16.77,1.751-13.535-14.583-8.605-17.907.171" transform="translate(1152.082 -267.559)" fill="none" stroke="#24303e" stroke-linecap="round" stroke-linejoin="round" stroke-width="3"/>
      <path id="Trazado_162" data-name="Trazado 162" d="M-1114.782,418.339c1.171-1.313,1.026-3.3.812-5.046l-2.263-18.423" transform="translate(1163.318 -368.3)" fill="none" stroke="#24303e" stroke-linecap="round" stroke-linejoin="round" stroke-width="3"/>
      <path id="Trazado_163" data-name="Trazado 163" d="M-1277.127,690.349c-2.775-6.406-9.127-11.3-15.343-14.474s-12.968-5.158-19.368-7.946c-2.814-1.226-5.566-2.611-8.465-3.622-4.51-1.574-9.354-2.239-13.615-4.4-10.386-5.26-8.678-17.4-5.413-26.589,2.625-7.39,6.834-14.979,12.467-14.368,5.758.624,16.958-1.61,22.426.2,8.757,2.906,8.353,10.923,10.208,19.01" transform="translate(1341.842 -545.203)" fill="none" stroke="#24303e" stroke-linecap="round" stroke-linejoin="round" stroke-width="3"/>
      <path id="Trazado_164" data-name="Trazado 164" d="M-1150.977,662.333l-2.914,1.215a3.837,3.837,0,0,0-1.729,1.127,3.868,3.868,0,0,0-.281,2.923,16.441,16.441,0,0,0,1.178,4.418,5.546,5.546,0,0,0,3.255,3.04,6.364,6.364,0,0,0,3.276-.083" transform="translate(1194.822 -579.943)" fill="none" stroke="#24303e" stroke-linecap="round" stroke-linejoin="round" stroke-width="3"/>
      <path id="Trazado_165" data-name="Trazado 165" d="M-1069.418,571.149-1074,574.32a13.9,13.9,0,0,0,4.664,8.337c1.516,1.293,3.68,2.268,5.464,1.381" transform="translate(1129.899 -507.789)" fill="none" stroke="#24303e" stroke-linecap="round" stroke-linejoin="round" stroke-width="3"/>
      <path id="Trazado_166" data-name="Trazado 166" d="M-1121.345,603.591l-5.262,2.7a.6.6,0,0,0-.267.211.589.589,0,0,0-.021.392,15.182,15.182,0,0,0,5.043,8.762,2.855,2.855,0,0,0,.791.523,2.826,2.826,0,0,0,1.035.14c2.034-.005,4.286-.63,5.316-2.384" transform="translate(1171.774 -533.461)" fill="none" stroke="#24303e" stroke-linecap="round" stroke-linejoin="round" stroke-width="3"/>
      <path id="Trazado_167" data-name="Trazado 167" d="M-1181.152,688.94c-.832,4.228-7.759,5.517-11.252,4.378a7.621,7.621,0,0,1-4.449-3.9c-1.025-1.911-.389-6.128-1.812-7.532" transform="translate(1228.545 -595.418)" fill="none" stroke="#24303e" stroke-linecap="round" stroke-linejoin="round" stroke-width="3"/>
      <path id="Trazado_168" data-name="Trazado 168" d="M-1240.025,682.878a32.035,32.035,0,0,1-11.079.89" transform="translate(1270.041 -596.2)" fill="none" stroke="#24303e" stroke-linecap="round" stroke-linejoin="round" stroke-width="3"/>
      <path id="Trazado_169" data-name="Trazado 169" d="M-1105.854,677.519a17.671,17.671,0,0,1-7.317,2.462" transform="translate(1160.895 -591.96)" fill="none" stroke="#24303e" stroke-linecap="round" stroke-linejoin="round" stroke-width="3"/>
      <path id="Trazado_170" data-name="Trazado 170" d="M-1337.7,581.2c.407-4.5,2.079-15.01,2.662-19.489.389-2.987.121-8.669,2.032-11.207,3.84-5.1,19.657-4.979,25.461-5.009,3.538-.018,9.016-.313,12.128,1.773,3.414,2.288,5.784,7.515,8.075,10.859,1.872,2.733,7.041,7.789,6.439,11.37a5.5,5.5,0,0,1-2.622,3.534" transform="translate(1338.564 -487.468)" fill="none" stroke="#24303e" stroke-linecap="round" stroke-linejoin="round" stroke-width="3"/>
      <path id="Trazado_171" data-name="Trazado 171" d="M-1069.579,671.942a43.485,43.485,0,0,1,11.125,6.644,22.037,22.037,0,0,1,7.082,10.682" transform="translate(1126.401 -587.547)" fill="none" stroke="#24303e" stroke-linecap="round" stroke-linejoin="round" stroke-width="3"/>
      <path id="Trazado_172" data-name="Trazado 172" d="M-1055.246,646.67a7.92,7.92,0,0,1-8.051,3.625" transform="translate(1121.43 -567.549)" fill="none" stroke="#24303e" stroke-linecap="round" stroke-linejoin="round" stroke-width="3"/>
      <path id="Trazado_173" data-name="Trazado 173" d="M-1301.306,494.439c3.815-6.589,9.124-14.8,16.83-16.1,7.114-1.2,18.885,2.934,24.765,6.859,5.8,3.87,8.737,11.384,13.375,16.523,2.36,2.616,4.54,5.358,3.742,9.141a7.542,7.542,0,0,1-.988,2.441" transform="translate(1309.766 -434.183)" fill="none" stroke="#24303e" stroke-linecap="round" stroke-linejoin="round" stroke-width="3"/>
      <path id="Trazado_174" data-name="Trazado 174" d="M-1301.186,359.525c-1.339-5.655-3.6-11.429-1.266-17.153,1.731-4.252,5.479-7.554,8.391-10.978,3.845-4.522,6.9-10.469,11.223-14.487,3.468-3.222,9.023-3.356,13.469-4.015,3.12-.462,11.13-3.211,13.265-.6,3.383,4.136-1.656,11.74-4.734,14.191-3.412,2.716-9.5,3.422-12.322,6.531-1.856,2.045-4.311,10.129-3.877,12.985" transform="translate(1311.471 -302.078)" fill="none" stroke="#24303e" stroke-linecap="round" stroke-linejoin="round" stroke-width="3"/>
      <path id="Trazado_175" data-name="Trazado 175" d="M-1146.547,318.259c-2.39,4.652-18.784,9.827-18.049,1.025" transform="translate(1201.606 -307.678)" fill="none" stroke="#24303e" stroke-linecap="round" stroke-linejoin="round" stroke-width="3"/>
      <path id="Trazado_176" data-name="Trazado 176" d="M-1212.141,412.526c1.731.687,3.69.232,5.463-.34a45.039,45.039,0,0,0,7.276-3.075" transform="translate(1239.21 -379.569)" fill="none" stroke="#24303e" stroke-linecap="round" stroke-linejoin="round" stroke-width="3"/>
      <path id="Trazado_177" data-name="Trazado 177" d="M-1258.561,697.169a10.021,10.021,0,0,0,4.269-2.678c2.716-2.433,5.5-4.954,7.091-8.233" transform="translate(1275.942 -598.874)" fill="none" stroke="#24303e" stroke-linecap="round" stroke-linejoin="round" stroke-width="3"/>
    </g>
  </g>
</svg>
