<svg id="Capa_1" data-name="Capa 1" xmlns="http://www.w3.org/2000/svg" viewBox="0 0 123.42 202.75"><defs><style>.cls-1{fill:#f4f4f4;opacity:0.38;isolation:isolate;}.cls-2{fill:none;stroke:#24303e;stroke-linecap:round;stroke-linejoin:round;stroke-width:3px;}</style></defs><circle id="Elipse_33" data-name="Elipse 33" class="cls-1" cx="70.92" cy="150.25" r="52.5"/><path class="cls-2" d="M34.15,40.4a13,13,0,0,1,9.61-2.59"/><path class="cls-2" d="M72.93,33.16a10.1,10.1,0,0,1,10.33,2"/><path class="cls-2" d="M68.72,52.15c3.14-1,6.29.66,9,2.15"/><path class="cls-2" d="M46.53,55.07a12.59,12.59,0,0,0-8,1.43"/><path class="cls-2" d="M36,12.51c4.28.81,6.63,5,8.16,8.72a61.54,61.54,0,0,1,3.4,13c1.61,9.1,3.35,18.31,7.32,26.72C55.93,63.2,59,69.71,60.79,71"/><path class="cls-2" d="M28.92,15.79c.65-2.69,3-4,7-3.28"/><path class="cls-2" d="M43.1,80.38c-2.07-9.59-4.75-21.52-7.17-31-1.21-4.74-2.46-12.08-3.71-16.8-.62-2.36-1.25-4.72-1.87-7.09a47,47,0,0,1-1.56-6.94,7.87,7.87,0,0,1,.13-2.74"/><path class="cls-2" d="M61.85,71.28c3.31,0,4.4-4.7,4.95-7.18a70,70,0,0,0,1.57-9.86c.58-5.68,2.3-11.24,3.55-16.8.81-3.64,1.56-7.29,2.08-11,.41-2.93.53-2.91,1-5.82a26.36,26.36,0,0,1,2.82-7.17c2.45-4.93,8.16-7,11-5.91C93,9.21,90.17,19.34,90,23c-.17,3.26-1,3.43-1.65,6.6s-1.18,6.49-1.6,9.77C85,52.67,84.56,63.5,84.18,76.92q-.32,11.43-.64,22.86"/><path class="cls-2" d="M28.73,79.88c-12.53-5-12.67,2.1-13.64,3.68-1.13,1.83-.8,4-.11,5.91,1.46,4.11,3.33,8.24,6.63,11.19a28.36,28.36,0,0,1,4.78,4.89c1.26,1.82,2.23,3.81,3.42,5.67,2.15,3.36,5.8,6.36,10,6.6a5,5,0,0,0,5-2.53c.84-1.79,2-4.07,2.09-6.05"/><path class="cls-2" d="M13.92,89.28C8.8,89.42,5.25,94.35,4.35,99a29.5,29.5,0,0,0,.13,9.83c.45,3.23.93,6.46,1.4,9.69a71.2,71.2,0,0,0,5,18.1c1.49,3.48,4.06,6.73,5.82,10.21,2.1,4.16,2.48,8.78,2.73,13.37a63.12,63.12,0,0,1-.36,11.08"/><path class="cls-2" d="M9.26,102.12c4.74,5.78,5.8,13.57,9.94,19.71C22.69,127,31.57,134.38,37,127.22a8.56,8.56,0,0,0-.35-10"/><path class="cls-2" d="M29,112.09A11.73,11.73,0,0,0,24.13,116c-1.11,1.89,1.36,4.2,2.57,5.47a6.79,6.79,0,0,0,5.92,2.26c1.59-.07,3.68-.24,4.55-1.8"/><path class="cls-2" d="M37.48,98.41a7.25,7.25,0,0,0-5.83,3.07c-1.73,2.47-.45,4.83,1.12,7s3.79,3.69,6.43,3,4.22-3.12,4.84-5.62"/><path class="cls-2" d="M35,74.92c-3.59.37-6.09,3.93-6.22,7.35-.16,4,2.24,7.59,5.14,10.13,3.19,2.8,7.07,4.81,10.7,7l12.5,7.52c-10.06,9.86-11.8,24.68-12.63,38"/><path class="cls-2" d="M71.68,172.24s-.49-2.83,1.42-10.61C75.28,152.7,80,146.19,83,137.55c4.61-13,7.93-35-6.15-43.66-13-8-30-6.81-41.38-18.75"/><path class="cls-2" d="M30,80.38c.83,3.16,4.39,5.4,7.29,6.43,3.78,1.35,6.17-1.22,8.07-4.15"/></svg>